# xmcd
#
# Track frame offsets: 
#        150
#        12221
#        25027
#        37967
#        56641
#        80152
#        98735
#        115296
#        131136
#        140211
#        154428
#        174364
#        192068
#        207392
#
# Disc length: 3038 seconds
#
# Revision: 2
# Processed by: cddbd v1.5.2PL0 Copyright (c) Steve Scherf et al.
# Submitted via: ExactAudioCopy v1.0b3
#
DISCID=c20bdc0e
DTITLE=Shirley Bassey - Soul Collection
DYEAR=1900
DGENRE=Soul
TTITLE0=Diamonds are forever
TTITLE1=Goldfinger
TTITLE2=I who have nothing
TTITLE3=All by myself
TTITLE4=This Masquerade
TTITLE5=If you don't understand
TTITLE6=New York State of mine
TTITLE7=Something
TTITLE8=Big Spender
TTITLE9=I am what I am
TTITLE10=Never, never, never
TTITLE11=This is my life
TTITLE12=Yesterday
TTITLE13=The power of love
EXTD=
EXTT0=
EXTT1=
EXTT2=
EXTT3=
EXTT4=
EXTT5=
EXTT6=
EXTT7=
EXTT8=
EXTT9=
EXTT10=
EXTT11=
EXTT12=
EXTT13=
PLAYORDER=
